# xmcd
#
# Track frame offsets:
#	150
#	19472
#	42002
#	65870
#
# Disc length: 1228 seconds
#
# Revision: 3
# Processed by: cddbd v1.5.2PL0 Copyright (c) Steve Scherf et al.
# Submitted via: audiograbber 1.83.01
#
DISCID=3404ca04
DTITLE=Eric Clapton - PILGRIM
DYEAR=1998
DGENRE=Pop
TTITLE0=PILGRIM remix edit by Mick Quxauski
TTITLE1=PILGRIM remix by Keith Croch
TTITLE2=PILGRIM remix by Organized Noize
TTITLE3=PILGRIM album version
EXTD=P and C 1998 Reprise Records - Warner Music Germany\n9362 44548-2
EXTT0=
EXTT1=
EXTT2=
EXTT3=
PLAYORDER=
